# xmcd
#
# Track frame offsets:
# 150
# 16089
# 27083
# 41366
# 55119
# 71312
# 86986
# 101777
# 118014
# 131653
# 144583
# 154146
# 168289
# 180848
# 195875
# 209451
# 224093
# 243648
# 262388
# 276735
# 293875
# 309250
#
# Disc length: 4280 seconds
#
#
# Revision: 0
# Processed by: cddbd v1.5.2PL0 Copyright (c) Steve Scherf et al.
# Submitted via: FreeRIP 2.941 
#
DISCID=4910b616
DTITLE=Maria Lataretu - Discul de Aur
DYEAR=2008
DGENRE=Folcloric
TTITLE0=Haide, hai cu dor si luna
TTITLE1=De ce nu te-nsori, Gheorghita ?
TTITLE2=Ce frumoasa-i potecuta
TTITLE3=Colindai valceaua toata
TTITLE4=Trei in lume nu se poate
TTITLE5=Aseara pe la chindie
TTITLE6=Luna, Luna ia fii buna
TTITLE7=Maicuta sa nu ma dai
TTITLE8=Ma dusei in camp sa ar
TTITLE9=Deasupra capului meu
TTITLE10=Cand oi zice-odata hai !
TTITLE11=Ciresule, frunza rara
TTITLE12=De ce nu vii, neicuta-al meu
TTITLE13=Murgule, coama frumoasa
TTITLE14=Bistrita, apa zglobie
TTITLE15=Baiat ca Gheorghe mai rar
TTITLE16=Se cearta bradul cu plopul
TTITLE17=Cum am vorbit noi aseara, Marioara
TTITLE18=Iarba verde, iarba cruda
TTITLE19=Ti-ai uitat, neica, dragostea noastra
TTITLE20=A cui esti tu, mandrulita
TTITLE21=Viorea, viorea
EXTD=
EXTT0=
EXTT1=
EXTT2=
EXTT3=
EXTT4=
EXTT5=
EXTT6=
EXTT7=
EXTT8=
EXTT9=
EXTT10=
EXTT11=
EXTT12=
EXTT13=
EXTT14=
EXTT15=
EXTT16=
EXTT17=
EXTT18=
EXTT19=
EXTT20=
EXTT21=
PLAYORDER=
